<?xml version="1.0" encoding="utf-8"?><svg viewBox="0 0 36 36" xmlns="http://www.w3.org/2000/svg" xmlns:xlink="http://www.w3.org/1999/xlink"><style>:root>svg{display:none}:root>svg:target{display:block}</style><svg viewBox="0 0 8 4" id="arrow-down" xmlns="http://www.w3.org/2000/svg"><path d="M3.475 3.894L.223.627a.37.37 0 010-.52.363.363 0 01.516 0l2.994 3.008L6.728.108a.364.364 0 01.516 0 .37.37 0 010 .52L3.992 3.893a.367.367 0 01-.517 0z"/></svg><svg viewBox="0 0 18 11" id="arrow-top" xmlns="http://www.w3.org/2000/svg"><path d="M8.43.7L.22 9.708a.76.76 0 000 1.07.75.75 0 001.066 0L9 2.314l7.714 8.464a.75.75 0 001.066 0 .76.76 0 000-1.07L9.57.7A.742.742 0 009 .485.748.748 0 008.43.7z"/></svg><svg viewBox="0 0 32 31" id="bascet" xmlns="http://www.w3.org/2000/svg"><path d="M31.798 4.039a.923.923 0 00-.721-.347H6.509L5.822.715A.923.923 0 004.923 0h-4a.923.923 0 000 1.846H4.19l4.663 20.208c.097.419.47.715.9.715h18.494a.923.923 0 100-1.846h-17.76l-.71-3.077h18.532c.431 0 .806-.3.9-.72l2.77-12.308a.923.923 0 00-.18-.78zM27.569 16H9.35L6.937 5.538h22.987L27.57 16zM13.538 24a3.388 3.388 0 00-3.384 3.385 3.388 3.388 0 003.384 3.384 3.388 3.388 0 003.385-3.384A3.388 3.388 0 0013.538 24zm0 4.923A1.54 1.54 0 0112 27.385c0-.849.69-1.539 1.538-1.539.849 0 1.539.69 1.539 1.539a1.54 1.54 0 01-1.539 1.538zM24.615 24a3.388 3.388 0 00-3.384 3.385 3.388 3.388 0 003.384 3.384A3.388 3.388 0 0028 27.385 3.388 3.388 0 0024.615 24zm0 4.923a1.54 1.54 0 01-1.538-1.538c0-.849.69-1.539 1.538-1.539.849 0 1.539.69 1.539 1.539a1.54 1.54 0 01-1.539 1.538z"/></svg><svg viewBox="0 0 26 17" id="catalog" xmlns="http://www.w3.org/2000/svg"><path d="M.917 0h24.896v1H.917zM.917 8h19.917v1H.917zM.917 16h24.896v1H.917z"/></svg><svg viewBox="0 0 18 18" id="close-btn" xmlns="http://www.w3.org/2000/svg"><g clip-path="url(#eclip0_639_1771)"><path d="M10.055 9.005l7.716-7.716A.75.75 0 1016.71.23L8.995 7.945 1.28.23A.75.75 0 00.22 1.29l7.716 7.716L.22 16.721a.75.75 0 001.06 1.06l7.716-7.716 7.716 7.716a.75.75 0 001.06-1.06l-7.716-7.716z"/></g><defs><clipPath id="eclip0_639_1771"><path d="M0 0h18v18H0z"/></clipPath></defs></svg><svg viewBox="0 0 33 32" id="facebook" xmlns="http://www.w3.org/2000/svg"><g clip-path="url(#fclip0_20_50)"><path d="M21.65 5.313h2.901V.225C24.051.156 22.33 0 20.325 0c-4.183 0-7.048 2.65-7.048 7.519V12H8.66v5.688h4.616V32h5.659V17.69h4.429L24.068 12h-5.133V8.083c0-1.644.44-2.77 2.715-2.77z"/></g><defs><clipPath id="fclip0_20_50"><path transform="translate(.469)" d="M0 0h31.778v32H0z"/></clipPath></defs></svg><svg viewBox="0 0 32 36" id="fillter-btn" xmlns="http://www.w3.org/2000/svg"><g clip-path="url(#gclip0_862_5407)"><path d="M13.78 28.125H1.14C.51 28.125 0 28.63 0 29.25s.51 1.125 1.139 1.125H13.78c.528 2.567 2.825 4.5 5.58 4.5 2.754 0 5.05-1.933 5.578-4.5h5.809c.628 0 1.139-.504 1.139-1.125 0-.62-.51-1.125-1.14-1.125h-5.808c-.527-2.567-2.824-4.5-5.579-4.5-2.754 0-5.051 1.933-5.579 4.5zm8.996 1.125c0 1.864-1.53 3.375-3.417 3.375-1.887 0-3.416-1.51-3.416-3.375 0-1.864 1.53-3.375 3.416-3.375 1.887 0 3.416 1.51 3.416 3.375zM2.393 16.875H1.139C.51 16.875 0 17.379 0 18s.51 1.125 1.139 1.125h1.254c.527 2.567 2.824 4.5 5.578 4.5 2.755 0 5.052-1.933 5.58-4.5h17.196c.628 0 1.139-.504 1.139-1.125s-.51-1.125-1.14-1.125H13.55c-.527-2.567-2.824-4.5-5.579-4.5-2.754 0-5.051 1.933-5.578 4.5zM11.388 18c0 1.864-1.53 3.375-3.417 3.375-1.887 0-3.416-1.51-3.416-3.375 0-1.864 1.53-3.375 3.416-3.375 1.887 0 3.417 1.51 3.417 3.375zm6.947-12.375H1.14C.51 5.625 0 6.129 0 6.75s.51 1.125 1.139 1.125h17.197c.527 2.567 2.824 4.5 5.578 4.5 2.755 0 5.052-1.933 5.58-4.5h1.253c.628 0 1.139-.504 1.139-1.125 0-.62-.51-1.125-1.14-1.125h-1.253c-.527-2.567-2.824-4.5-5.579-4.5-2.754 0-5.051 1.933-5.579 4.5zm8.996 1.125c0 1.864-1.53 3.375-3.417 3.375-1.887 0-3.416-1.51-3.416-3.375 0-1.864 1.53-3.375 3.416-3.375 1.887 0 3.417 1.51 3.417 3.375z"/></g><defs><clipPath id="gclip0_862_5407"><path d="M0 0h31.886v36H0z"/></clipPath></defs></svg><svg viewBox="0 0 36 34" id="grid" xmlns="http://www.w3.org/2000/svg"><path d="M6.044 26.445H1.511c-.834 0-1.511.676-1.511 1.51v4.534C0 33.324.677 34 1.511 34h4.533c.835 0 1.512-.676 1.512-1.511v-4.533c0-.835-.677-1.511-1.512-1.511zM20.211 26.445h-4.533c-.835 0-1.511.676-1.511 1.51v4.534c0 .835.676 1.511 1.51 1.511h4.534c.835 0 1.511-.676 1.511-1.511v-4.533c0-.835-.676-1.511-1.51-1.511zM34.378 26.445h-4.534c-.834 0-1.51.676-1.51 1.51v4.534c0 .835.676 1.511 1.51 1.511h4.534c.834 0 1.51-.676 1.51-1.511v-4.533c0-.835-.676-1.511-1.51-1.511zM6.044 13.222H1.511C.677 13.222 0 13.9 0 14.733v4.534c0 .834.677 1.51 1.511 1.51h4.533c.835 0 1.512-.676 1.512-1.51v-4.534c0-.834-.677-1.51-1.512-1.51zM20.211 13.222h-4.533c-.835 0-1.511.677-1.511 1.511v4.534c0 .834.676 1.51 1.51 1.51h4.534c.835 0 1.511-.676 1.511-1.51v-4.534c0-.834-.676-1.51-1.51-1.51zM34.378 13.222h-4.534c-.834 0-1.51.677-1.51 1.511v4.534c0 .834.676 1.51 1.51 1.51h4.534c.834 0 1.51-.676 1.51-1.51v-4.534c0-.834-.676-1.51-1.51-1.51zM6.044 0H1.511C.677 0 0 .677 0 1.511v4.533c0 .835.677 1.512 1.511 1.512h4.533c.835 0 1.512-.677 1.512-1.512V1.511C7.556.677 6.879 0 6.044 0zM20.211 0h-4.533c-.835 0-1.511.677-1.511 1.511v4.533c0 .835.676 1.512 1.51 1.512h4.534c.835 0 1.511-.677 1.511-1.512V1.511c0-.834-.676-1.511-1.51-1.511zM34.378 0h-4.534c-.834 0-1.51.677-1.51 1.511v4.533c0 .835.676 1.512 1.51 1.512h4.534c.834 0 1.51-.677 1.51-1.512V1.511c0-.834-.676-1.511-1.51-1.511z"/></svg><svg viewBox="0 0 32 29" id="heart" xmlns="http://www.w3.org/2000/svg"><path d="M29.665 2.777C28.087.987 25.897 0 23.5 0c-3.372 0-5.506 2.014-6.703 3.703-.311.438-.575.878-.797 1.292a12.245 12.245 0 00-.797-1.292C14.006 2.013 11.872 0 8.5 0 6.103 0 3.913.986 2.335 2.777.829 4.486 0 6.774 0 9.22c0 2.662 1.04 5.139 3.272 7.793 1.994 2.373 4.864 4.818 8.187 7.65a385.452 385.452 0 013.883 3.34l.04.035a.935.935 0 001.236 0l.04-.035c1.364-1.193 2.644-2.284 3.883-3.34 3.323-2.832 6.193-5.277 8.187-7.65C30.96 14.36 32 11.883 32 9.22c0-2.446-.83-4.734-2.335-6.443zm-10.34 20.46c-1.068.909-2.167 1.845-3.325 2.852-1.158-1.007-2.257-1.943-3.325-2.853-6.503-5.542-10.8-9.203-10.8-14.016 0-1.99.663-3.837 1.866-5.203A6.258 6.258 0 018.5 1.875c2.57 0 4.232 1.584 5.174 2.912a11.113 11.113 0 011.435 2.854.937.937 0 001.782 0c.15-.461.591-1.662 1.436-2.854.94-1.328 2.602-2.912 5.173-2.912 1.851 0 3.541.76 4.759 2.142 1.203 1.366 1.866 3.213 1.866 5.203 0 4.813-4.297 8.474-10.8 14.016z"/></svg><svg viewBox="0 0 33 32" id="instagram" xmlns="http://www.w3.org/2000/svg"><g clip-path="url(#jclip0_20_42)"><path d="M16.449 7.784c-4.506 0-8.154 3.677-8.154 8.21 0 4.538 3.652 8.211 8.154 8.211 4.505 0 8.153-3.677 8.153-8.21 0-4.538-3.651-8.211-8.153-8.211zm0 13.54c-2.925 0-5.293-2.385-5.293-5.33 0-2.943 2.369-5.329 5.293-5.329 2.923 0 5.292 2.386 5.292 5.33.001 2.944-2.367 5.329-5.292 5.329z"/><path d="M22.995.101c-2.924-.137-10.165-.13-13.091 0-2.572.122-4.84.747-6.669 2.588C.18 5.767.57 9.913.57 15.995c0 6.224-.344 10.274 2.665 13.305 3.068 3.088 7.246 2.684 13.214 2.684 6.122 0 8.235.004 10.4-.84 2.944-1.15 5.166-3.8 5.383-8.559.138-2.945.13-10.236 0-13.182C31.97 3.785 28.976.379 22.995.1zm4.628 27.163C25.619 29.28 22.84 29.1 16.41 29.1c-6.62 0-9.275.099-11.212-1.857-2.231-2.236-1.827-5.827-1.827-11.27C3.37 8.606 2.62 3.3 9.96 2.922c1.688-.06 2.184-.08 6.43-.08l.06.04c7.056 0 12.592-.744 12.925 6.648.075 1.686.092 2.193.092 6.462 0 6.59.124 9.279-1.845 11.27z"/><path d="M24.925 9.379a1.912 1.912 0 001.906-1.92c0-1.059-.853-1.918-1.905-1.918A1.912 1.912 0 0023.02 7.46c0 1.06.853 1.919 1.905 1.919z"/></g><defs><clipPath id="jclip0_20_42"><path transform="translate(.554)" d="M0 0h31.778v32H0z"/></clipPath></defs></svg><svg viewBox="0 0 35 35" id="list" xmlns="http://www.w3.org/2000/svg"><path d="M32.4 28h-7.8c-1.436 0-2.6.627-2.6 1.4v4.2c0 .773 1.164 1.4 2.6 1.4h7.8c1.436 0 2.6-.627 2.6-1.4v-4.2c0-.773-1.164-1.4-2.6-1.4zM10.4 28H2.6c-1.436 0-2.6.627-2.6 1.4v4.2c0 .773 1.164 1.4 2.6 1.4h7.8c1.436 0 2.6-.627 2.6-1.4v-4.2c0-.773-1.164-1.4-2.6-1.4zM32.4 14h-7.8c-1.436 0-2.6.627-2.6 1.4v4.2c0 .773 1.164 1.4 2.6 1.4h7.8c1.436 0 2.6-.627 2.6-1.4v-4.2c0-.773-1.164-1.4-2.6-1.4zM10.4 14H2.6c-1.436 0-2.6.627-2.6 1.4v4.2c0 .773 1.164 1.4 2.6 1.4h7.8c1.436 0 2.6-.627 2.6-1.4v-4.2c0-.773-1.164-1.4-2.6-1.4zM32.4 0h-7.8C23.164 0 22 .627 22 1.4v4.2c0 .773 1.164 1.4 2.6 1.4h7.8c1.436 0 2.6-.627 2.6-1.4V1.4C35 .627 33.836 0 32.4 0zM10.4 0H2.6C1.164 0 0 .627 0 1.4v4.2C0 6.373 1.164 7 2.6 7h7.8c1.436 0 2.6-.627 2.6-1.4V1.4C13 .627 11.836 0 10.4 0z"/></svg><svg viewBox="0 0 24 24" id="search" xmlns="http://www.w3.org/2000/svg"><path d="M9.89 19.766C4.438 19.766 0 15.332 0 9.883 0 4.433 4.437 0 9.89 0c5.454 0 9.891 4.433 9.891 9.883 0 5.45-4.437 9.883-9.89 9.883zm0-17.893c-4.42 0-8.015 3.593-8.015 8.01 0 4.416 3.596 8.01 8.016 8.01s8.015-3.594 8.015-8.01c0-4.417-3.595-8.01-8.015-8.01zm13.835 21.852a.936.936 0 000-1.325l-4.195-4.192a.938.938 0 00-1.326 1.325l4.196 4.192a.935.935 0 001.326 0z"/></svg><svg viewBox="0 0 33 32" id="telegram" xmlns="http://www.w3.org/2000/svg"><g clip-path="url(#mclip0_20_46)"><path d="M13.328 20.241l-.526 7.446c.753 0 1.078-.326 1.469-.716l3.526-3.393 7.306 5.387c1.34.753 2.284.357 2.646-1.24l4.796-22.63.001-.002c.425-1.994-.716-2.774-2.022-2.285L2.334 13.676c-1.924.752-1.895 1.832-.327 2.322l7.207 2.257 16.74-10.548c.788-.526 1.505-.235.916.29L13.328 20.241z"/></g><defs><clipPath id="mclip0_20_46"><path transform="translate(.86)" d="M0 0h31.778v32H0z"/></clipPath></defs></svg><svg viewBox="0 0 25 32" id="user" xmlns="http://www.w3.org/2000/svg"><path d="M22.678 19.943a12.5 12.5 0 00-4.085-3.779 9.242 9.242 0 003.093-6.902C21.686 4.155 17.531 0 12.424 0S3.162 4.155 3.162 9.262a9.242 9.242 0 003.092 6.902 12.5 12.5 0 00-4.085 3.779A12.322 12.322 0 000 26.936V32h24.848v-5.064c0-2.505-.75-4.923-2.17-6.993zM5.101 9.263c0-4.039 3.285-7.324 7.323-7.324s7.323 3.285 7.323 7.323-3.285 7.323-7.323 7.323S5.1 13.3 5.1 9.262zM1.939 30.06v-3.125c0-4.109 2.38-7.794 6.101-9.516a9.205 9.205 0 004.384 1.104c1.585 0 3.078-.4 4.383-1.104 3.721 1.722 6.101 5.407 6.101 9.516v3.125H1.94z"/></svg><svg viewBox="0 0 32 32" id="youtube" xmlns="http://www.w3.org/2000/svg"><g clip-path="url(#oclip0_20_48)"><path d="M31.24 7.905l.039.262c-.384-1.372-1.42-2.43-2.738-2.816l-.028-.007c-2.478-.677-12.447-.677-12.447-.677s-9.944-.014-12.446.677A4.045 4.045 0 00.862 8.14l-.007.028c-.925 4.868-.932 10.717.041 15.93l-.04-.265c.383 1.372 1.42 2.43 2.737 2.816l.028.007c2.475.678 12.447.678 12.447.678s9.942 0 12.446-.678a4.044 4.044 0 002.76-2.795l.006-.028c.421-2.264.662-4.87.662-7.53l-.001-.295.001-.307a43.3 43.3 0 00-.703-7.795zM12.885 20.868v-9.724l8.297 4.87-8.297 4.854z"/></g><defs><clipPath id="oclip0_20_48"><path transform="translate(.164)" d="M0 0h31.778v32H0z"/></clipPath></defs></svg></svg>